<mxfile host="app.diagrams.net" modified="2022-01-25T20:38:04.648Z" agent="5.0 (Windows NT 10.0; Win64; x64) AppleWebKit/537.36 (KHTML, like Gecko) Chrome/97.0.4692.99 Safari/537.36" etag="NY5agfwWJuiKR4JKIOi8" version="16.4.6" type="github">
  <diagram id="FA_bkVAL_-uxjhfnRFkv" name="페이지-1">
    <mxGraphModel dx="1022" dy="468" grid="1" gridSize="10" guides="1" tooltips="1" connect="1" arrows="1" fold="1" page="1" pageScale="1" pageWidth="827" pageHeight="1169" math="0" shadow="0">
      <root>
        <mxCell id="0" />
        <mxCell id="1" parent="0" />
        <mxCell id="r9LnbN7YsqUJQGqd5EiF-3" style="edgeStyle=orthogonalEdgeStyle;rounded=0;orthogonalLoop=1;jettySize=auto;html=1;" edge="1" parent="1" source="r9LnbN7YsqUJQGqd5EiF-2">
          <mxGeometry relative="1" as="geometry">
            <mxPoint x="400" y="130" as="targetPoint" />
          </mxGeometry>
        </mxCell>
        <mxCell id="r9LnbN7YsqUJQGqd5EiF-2" value="단어 정하기&amp;nbsp;" style="ellipse;whiteSpace=wrap;html=1;" vertex="1" parent="1">
          <mxGeometry x="340" y="20" width="120" height="80" as="geometry" />
        </mxCell>
        <mxCell id="r9LnbN7YsqUJQGqd5EiF-9" value="" style="edgeStyle=orthogonalEdgeStyle;rounded=0;orthogonalLoop=1;jettySize=auto;html=1;" edge="1" parent="1" source="r9LnbN7YsqUJQGqd5EiF-4">
          <mxGeometry relative="1" as="geometry">
            <mxPoint x="395" y="260" as="targetPoint" />
          </mxGeometry>
        </mxCell>
        <mxCell id="r9LnbN7YsqUJQGqd5EiF-4" value="단어 개수만큼 빈칸" style="ellipse;whiteSpace=wrap;html=1;" vertex="1" parent="1">
          <mxGeometry x="320" y="130" width="150" height="80" as="geometry" />
        </mxCell>
        <mxCell id="r9LnbN7YsqUJQGqd5EiF-11" style="edgeStyle=orthogonalEdgeStyle;rounded=0;orthogonalLoop=1;jettySize=auto;html=1;exitX=0.5;exitY=1;exitDx=0;exitDy=0;entryX=0.5;entryY=0;entryDx=0;entryDy=0;" edge="1" parent="1" source="r9LnbN7YsqUJQGqd5EiF-10" target="r9LnbN7YsqUJQGqd5EiF-12">
          <mxGeometry relative="1" as="geometry">
            <mxPoint x="395" y="390" as="targetPoint" />
          </mxGeometry>
        </mxCell>
        <mxCell id="r9LnbN7YsqUJQGqd5EiF-13" style="edgeStyle=orthogonalEdgeStyle;rounded=0;orthogonalLoop=1;jettySize=auto;html=1;exitX=0.5;exitY=1;exitDx=0;exitDy=0;" edge="1" parent="1" source="r9LnbN7YsqUJQGqd5EiF-10">
          <mxGeometry relative="1" as="geometry">
            <mxPoint x="500" y="390" as="targetPoint" />
          </mxGeometry>
        </mxCell>
        <mxCell id="r9LnbN7YsqUJQGqd5EiF-10" value="알파벳을 입력" style="ellipse;whiteSpace=wrap;html=1;" vertex="1" parent="1">
          <mxGeometry x="335" y="260" width="120" height="80" as="geometry" />
        </mxCell>
        <mxCell id="r9LnbN7YsqUJQGqd5EiF-15" style="edgeStyle=orthogonalEdgeStyle;rounded=0;orthogonalLoop=1;jettySize=auto;html=1;exitX=0.5;exitY=1;exitDx=0;exitDy=0;" edge="1" parent="1" source="r9LnbN7YsqUJQGqd5EiF-12">
          <mxGeometry relative="1" as="geometry">
            <mxPoint x="280" y="520" as="targetPoint" />
          </mxGeometry>
        </mxCell>
        <mxCell id="r9LnbN7YsqUJQGqd5EiF-12" value="일치하는 &lt;br&gt;알파벳이 있다" style="ellipse;whiteSpace=wrap;html=1;" vertex="1" parent="1">
          <mxGeometry x="220" y="390" width="120" height="80" as="geometry" />
        </mxCell>
        <mxCell id="r9LnbN7YsqUJQGqd5EiF-16" style="edgeStyle=orthogonalEdgeStyle;rounded=0;orthogonalLoop=1;jettySize=auto;html=1;exitX=0.5;exitY=1;exitDx=0;exitDy=0;" edge="1" parent="1" source="r9LnbN7YsqUJQGqd5EiF-14">
          <mxGeometry relative="1" as="geometry">
            <mxPoint x="500" y="520" as="targetPoint" />
          </mxGeometry>
        </mxCell>
        <mxCell id="r9LnbN7YsqUJQGqd5EiF-14" value="일치하는 &lt;br&gt;알파벳이 없다" style="ellipse;whiteSpace=wrap;html=1;" vertex="1" parent="1">
          <mxGeometry x="440" y="390" width="120" height="80" as="geometry" />
        </mxCell>
        <mxCell id="r9LnbN7YsqUJQGqd5EiF-28" style="edgeStyle=orthogonalEdgeStyle;rounded=0;orthogonalLoop=1;jettySize=auto;html=1;" edge="1" parent="1" source="r9LnbN7YsqUJQGqd5EiF-17">
          <mxGeometry relative="1" as="geometry">
            <mxPoint x="272.5" y="650" as="targetPoint" />
          </mxGeometry>
        </mxCell>
        <mxCell id="r9LnbN7YsqUJQGqd5EiF-17" value="빈칸에 채워진다" style="ellipse;whiteSpace=wrap;html=1;" vertex="1" parent="1">
          <mxGeometry x="210" y="520" width="125" height="80" as="geometry" />
        </mxCell>
        <mxCell id="r9LnbN7YsqUJQGqd5EiF-34" style="edgeStyle=orthogonalEdgeStyle;rounded=0;orthogonalLoop=1;jettySize=auto;html=1;entryX=0.5;entryY=0;entryDx=0;entryDy=0;" edge="1" parent="1" source="r9LnbN7YsqUJQGqd5EiF-18" target="r9LnbN7YsqUJQGqd5EiF-33">
          <mxGeometry relative="1" as="geometry" />
        </mxCell>
        <mxCell id="r9LnbN7YsqUJQGqd5EiF-18" value="hang&amp;nbsp;" style="ellipse;whiteSpace=wrap;html=1;" vertex="1" parent="1">
          <mxGeometry x="440" y="520" width="120" height="80" as="geometry" />
        </mxCell>
        <mxCell id="r9LnbN7YsqUJQGqd5EiF-39" style="edgeStyle=orthogonalEdgeStyle;rounded=0;orthogonalLoop=1;jettySize=auto;html=1;exitX=0.5;exitY=1;exitDx=0;exitDy=0;" edge="1" parent="1" source="r9LnbN7YsqUJQGqd5EiF-29" target="r9LnbN7YsqUJQGqd5EiF-35">
          <mxGeometry relative="1" as="geometry">
            <mxPoint x="380" y="770" as="targetPoint" />
            <Array as="points">
              <mxPoint x="270" y="750" />
              <mxPoint x="370" y="750" />
            </Array>
          </mxGeometry>
        </mxCell>
        <mxCell id="r9LnbN7YsqUJQGqd5EiF-40" style="edgeStyle=orthogonalEdgeStyle;rounded=0;orthogonalLoop=1;jettySize=auto;html=1;" edge="1" parent="1" source="r9LnbN7YsqUJQGqd5EiF-29">
          <mxGeometry relative="1" as="geometry">
            <mxPoint x="330" y="290" as="targetPoint" />
            <Array as="points">
              <mxPoint x="110" y="690" />
              <mxPoint x="110" y="290" />
            </Array>
          </mxGeometry>
        </mxCell>
        <mxCell id="r9LnbN7YsqUJQGqd5EiF-29" value="빈칸이 다 채워졌는가" style="ellipse;whiteSpace=wrap;html=1;" vertex="1" parent="1">
          <mxGeometry x="210" y="650" width="120" height="80" as="geometry" />
        </mxCell>
        <mxCell id="r9LnbN7YsqUJQGqd5EiF-36" style="edgeStyle=orthogonalEdgeStyle;rounded=0;orthogonalLoop=1;jettySize=auto;html=1;entryX=0.5;entryY=0;entryDx=0;entryDy=0;" edge="1" parent="1" source="r9LnbN7YsqUJQGqd5EiF-33" target="r9LnbN7YsqUJQGqd5EiF-35">
          <mxGeometry relative="1" as="geometry">
            <Array as="points">
              <mxPoint x="500" y="765" />
              <mxPoint x="395" y="765" />
            </Array>
          </mxGeometry>
        </mxCell>
        <mxCell id="r9LnbN7YsqUJQGqd5EiF-41" style="edgeStyle=orthogonalEdgeStyle;rounded=0;orthogonalLoop=1;jettySize=auto;html=1;" edge="1" parent="1" source="r9LnbN7YsqUJQGqd5EiF-33">
          <mxGeometry relative="1" as="geometry">
            <mxPoint x="460" y="290" as="targetPoint" />
            <Array as="points">
              <mxPoint x="690" y="690" />
              <mxPoint x="690" y="290" />
            </Array>
          </mxGeometry>
        </mxCell>
        <mxCell id="r9LnbN7YsqUJQGqd5EiF-33" value="hangman 완성" style="ellipse;whiteSpace=wrap;html=1;" vertex="1" parent="1">
          <mxGeometry x="440" y="650" width="120" height="80" as="geometry" />
        </mxCell>
        <mxCell id="r9LnbN7YsqUJQGqd5EiF-35" value="게임끝" style="ellipse;whiteSpace=wrap;html=1;" vertex="1" parent="1">
          <mxGeometry x="335" y="800" width="120" height="80" as="geometry" />
        </mxCell>
        <mxCell id="r9LnbN7YsqUJQGqd5EiF-42" value="NO" style="text;html=1;align=center;verticalAlign=middle;resizable=0;points=[];autosize=1;strokeColor=none;fillColor=none;" vertex="1" parent="1">
          <mxGeometry x="165" y="700" width="30" height="20" as="geometry" />
        </mxCell>
        <mxCell id="r9LnbN7YsqUJQGqd5EiF-43" value="NO" style="text;html=1;align=center;verticalAlign=middle;resizable=0;points=[];autosize=1;strokeColor=none;fillColor=none;" vertex="1" parent="1">
          <mxGeometry x="565" y="700" width="30" height="20" as="geometry" />
        </mxCell>
        <mxCell id="r9LnbN7YsqUJQGqd5EiF-44" value="YES" style="text;html=1;align=center;verticalAlign=middle;resizable=0;points=[];autosize=1;strokeColor=none;fillColor=none;" vertex="1" parent="1">
          <mxGeometry x="480" y="770" width="40" height="20" as="geometry" />
        </mxCell>
        <mxCell id="r9LnbN7YsqUJQGqd5EiF-45" value="YES" style="text;html=1;align=center;verticalAlign=middle;resizable=0;points=[];autosize=1;strokeColor=none;fillColor=none;" vertex="1" parent="1">
          <mxGeometry x="290" y="760" width="40" height="20" as="geometry" />
        </mxCell>
      </root>
    </mxGraphModel>
  </diagram>
</mxfile>
